<svg xmlns="http://www.w3.org/2000/svg" viewBox="0 0 720 290" font-family="Anthropic Sans, Inter, 'Source Sans 3', 'IBM Plex Sans', sans-serif">
<rect x="2" y="2" width="716" height="286" rx="14" fill="#F7F4EE" stroke="#D8D2C4" stroke-width="2"/>
<text x="24" y="38" font-size="21" font-weight="bold" fill="#1B2838">Contrastive learning</text>
<rect x="60" y="90" width="150" height="110" rx="10" fill="#E8EEF7" stroke="#2B5EA7" stroke-width="2.5"/>
<text x="135" y="135" font-size="15" fill="#2B5EA7" text-anchor="middle" font-weight="bold">anchor</text>
<text x="135" y="160" font-size="13" fill="#1B2838" text-anchor="middle" >cat photo</text>
<rect x="300" y="90" width="150" height="110" rx="10" fill="#EAF3E4" stroke="#2E7D4F" stroke-width="2.5"/>
<text x="375" y="135" font-size="15" fill="#2E7D4F" text-anchor="middle" font-weight="bold">positive</text>
<text x="375" y="160" font-size="13" fill="#1B2838" text-anchor="middle" >same cat, cropped</text>
<rect x="530" y="90" width="150" height="110" rx="10" fill="#FBEDEC" stroke="#B3402E" stroke-width="2.5"/>
<text x="605" y="135" font-size="15" fill="#B3402E" text-anchor="middle" font-weight="bold">negative</text>
<text x="605" y="160" font-size="13" fill="#1B2838" text-anchor="middle" >airplane</text>
<line x1="215" y1="145" x2="295" y2="145" stroke="#2E7D4F" stroke-width="2.5"/>
<line x1="295" y1="145" x2="284.9560216565646" y2="140.51463501634473" stroke="#2E7D4F" stroke-width="2.5"/>
<line x1="295" y1="145" x2="284.9560216565646" y2="149.48536498365527" stroke="#2E7D4F" stroke-width="2.5"/>
<text x="255" y="130" font-size="12" fill="#2E7D4F" text-anchor="middle" >pull</text>
<line x1="455" y1="145" x2="525" y2="145" stroke="#B3402E" stroke-width="2.5"/>
<line x1="525" y1="145" x2="514.9560216565646" y2="140.51463501634473" stroke="#B3402E" stroke-width="2.5"/>
<line x1="525" y1="145" x2="514.9560216565646" y2="149.48536498365527" stroke="#B3402E" stroke-width="2.5"/>
<text x="490" y="130" font-size="12" fill="#B3402E" text-anchor="middle" >push</text>
<text x="360" y="260" font-size="15" fill="#1B2838" text-anchor="middle" >Diagonal big, off-diagonal small. No labels needed.</text>
</svg>
